<?xml version="1.0" standalone="no"?>
<!DOCTYPE svg PUBLIC "-//W3C//DTD SVG 20010904//EN"
 "http://www.w3.org/TR/2001/REC-SVG-20010904/DTD/svg10.dtd">
<svg version="1.0" xmlns="http://www.w3.org/2000/svg"
 width="347.000000pt" height="135.000000pt" viewBox="0 0 347.000000 135.000000"
 preserveAspectRatio="xMidYMid meet">

<g transform="translate(0.000000,135.000000) scale(0.100000,-0.100000)"
fill="#000000" stroke="none">
<path d="M710 1325 c-6 -15 -10 -38 -10 -53 0 -15 -3 -43 -6 -62 l-6 -35 -131
-1 c-105 0 -149 -5 -212 -23 -142 -40 -251 -111 -303 -199 -23 -41 -27 -58
-27 -127 0 -70 4 -88 33 -147 62 -127 221 -236 359 -245 64 -5 123 7 123 24 0
5 -39 8 -87 8 -75 0 -97 4 -147 28 -183 85 -277 262 -216 405 41 96 156 177
305 217 33 9 115 19 183 22 l123 6 -6 -39 c-5 -42 -20 -336 -31 -615 l-7 -175
-48 -27 c-66 -37 -119 -101 -119 -143 0 -42 37 -86 98 -116 70 -34 225 -32
337 5 169 56 303 165 373 306 21 42 41 86 44 97 5 19 18 23 109 35 57 8 110
14 117 14 9 0 14 -20 16 -68 1 -47 7 -71 17 -78 21 -13 22 -13 48 37 27 50 85
105 143 135 50 26 58 24 58 -10 0 -70 51 -121 121 -121 42 0 133 26 166 47 22
15 23 14 23 -15 0 -35 31 -79 48 -68 7 4 12 18 12 32 0 83 156 230 209 197 17
-11 41 -7 41 7 0 18 -33 40 -61 40 -33 0 -107 -36 -157 -76 l-32 -27 0 32 c0
19 -6 34 -15 38 -22 8 -27 0 -32 -50 -5 -42 -8 -46 -57 -70 -102 -50 -188 -61
-206 -28 -5 11 -9 38 -8 62 4 97 -108 92 -226 -12 l-46 -41 0 146 c0 80 5 225
11 322 11 182 10 193 -27 194 -13 0 -21 -132 -28 -430 l-3 -165 -49 -2 c-27
-1 -77 -4 -111 -7 l-63 -5 0 72 c0 142 -50 263 -153 366 -95 97 -248 177 -401
212 l-58 13 6 50 c4 28 9 65 12 83 5 25 2 34 -15 43 -18 9 -22 7 -31 -15z
m165 -227 c278 -88 437 -286 423 -529 -2 -37 -6 -70 -9 -73 -3 -3 -59 -17
-125 -30 -196 -40 -349 -82 -448 -122 -18 -7 -19 -2 -12 157 8 194 24 478 32
567 l6 63 36 -7 c20 -4 64 -15 97 -26z m390 -680 c-42 -139 -194 -277 -375
-343 -107 -39 -249 -46 -307 -16 -75 38 -65 107 23 171 48 34 54 29 54 -41 0
-45 14 -79 33 -79 9 0 11 24 9 89 l-3 89 78 30 c66 26 167 53 398 110 22 6 53
10 68 11 25 1 28 -2 22 -21z"/>
<path d="M3029 573 c-6 -15 -8 -35 -6 -45 6 -22 -40 -63 -108 -94 -93 -44
-135 -23 -135 68 0 38 -4 48 -21 53 -11 4 -22 5 -23 3 -2 -1 -16 -27 -32 -56
-61 -116 -144 -138 -144 -39 0 21 8 52 17 68 16 26 16 31 3 39 -41 27 -73 -19
-67 -94 4 -42 10 -55 41 -83 53 -49 116 -40 165 24 l22 27 15 -22 c49 -71 162
-66 241 10 l31 30 20 -46 c36 -80 90 -74 137 17 l28 54 71 -4 c75 -5 146 12
154 35 3 11 -12 12 -76 7 -96 -9 -132 -2 -132 24 0 22 -25 45 -40 36 -5 -3
-10 -18 -10 -33 -1 -30 -62 -157 -76 -157 -16 0 -33 68 -33 131 -1 46 -5 63
-16 68 -11 4 -19 -3 -26 -21z"/>
</g>
</svg>
